<?xml version="1.0" encoding="UTF-8" standalone="no"?>
<svg
   version="1.0"
   width="68.376068pt"
   height="50pt"
   viewBox="0 0 68.376068 50"
   preserveAspectRatio="xMidYMid"
   id="svg4"
   sodipodi:docname="logo.svg"
   inkscape:version="1.3.2 (091e20e, 2023-11-25, custom)"
   xmlns:inkscape="http://www.inkscape.org/namespaces/inkscape"
   xmlns:sodipodi="http://sodipodi.sourceforge.net/DTD/sodipodi-0.dtd"
   xmlns="http://www.w3.org/2000/svg"
   xmlns:svg="http://www.w3.org/2000/svg">
  <defs
     id="defs4" />
  <sodipodi:namedview
     id="namedview4"
     pagecolor="#505050"
     bordercolor="#ffffff"
     borderopacity="1"
     inkscape:showpageshadow="0"
     inkscape:pageopacity="0"
     inkscape:pagecheckerboard="1"
     inkscape:deskcolor="#d1d1d1"
     inkscape:document-units="pt"
     inkscape:zoom="1.0068339"
     inkscape:cx="774.70571"
     inkscape:cy="606.3562"
     inkscape:window-width="3240"
     inkscape:window-height="2054"
     inkscape:window-x="-11"
     inkscape:window-y="-11"
     inkscape:window-maximized="1"
     inkscape:current-layer="svg4" />
  <metadata
     id="metadata1">
Created by potrace 1.15, written by Peter Selinger 2001-2017
</metadata>
  <g
     transform="matrix(0.00427611,0,0,-0.00427611,6.8322107,45.005881)"
     fill="#000000"
     stroke="none"
     id="g4">
    <path
       d="M 4365,9350 C 3867,9312 3404,9207 2950,9028 2777,8960 2432,8788 2267,8688 1027,7936 209,6673 36,5245 -89,4212 131,3171 661,2285 1059,1621 1602,1075 2267,672 2432,572 2777,400 2950,332 3164,248 3410,171 3610,125 4237,-19 4862,-37 5484,70 c 1126,193 2143,796 2860,1694 135,168 317,430 305,439 -2,2 -894,559 -1981,1238 -1088,679 -1978,1236 -1978,1239 0,3 890,560 1978,1239 1087,679 1979,1236 1981,1238 12,9 -173,275 -314,450 -308,384 -671,714 -1087,987 -632,414 -1333,663 -2089,741 -183,19 -625,27 -794,15 z"
       id="path1" />
    <path
       d="m 7652,5286 c -134,-33 -288,-143 -368,-263 -21,-31 -51,-96 -68,-143 -26,-74 -30,-99 -30,-195 -1,-122 13,-182 67,-294 41,-85 158,-204 247,-254 140,-77 318,-98 470,-56 280,77 476,350 456,637 -6,101 -47,226 -100,305 -83,124 -246,238 -384,266 -70,14 -224,13 -290,-3 z"
       id="path2" />
    <path
       d="m 9825,5281 c -275,-80 -454,-316 -455,-598 0,-112 14,-172 65,-279 61,-127 152,-218 279,-279 50,-24 115,-48 144,-54 68,-14 196,-14 264,0 73,15 203,78 264,127 95,77 176,204 208,329 21,78 21,227 0,307 -57,221 -228,393 -451,450 -82,21 -240,20 -318,-3 z"
       id="path3" />
    <path
       d="m 12020,5284 c -169,-44 -323,-169 -399,-324 -93,-190 -93,-370 0,-559 51,-103 152,-210 249,-264 184,-101 417,-103 605,-4 86,45 212,174 253,259 53,108 76,216 69,323 -10,165 -65,285 -186,406 -60,60 -94,85 -161,117 -47,22 -109,45 -138,51 -73,15 -226,13 -292,-5 z"
       id="path4" />
  </g>
</svg>
